<svg xmlns="http://www.w3.org/2000/svg" width="395" height="503" viewBox="0 0 395 503" role="img" aria-labelledby="title desc">
  <title id="title">QR code for Termeh Tohidi's website</title>
  <desc id="desc">Scan this QR code to open https://termehtohidi.github.io/</desc>
  <defs>
    <filter id="shadow" x="-20%" y="-20%" width="140%" height="140%">
      <feDropShadow dx="0" dy="16" stdDeviation="16" flood-color="#122922" flood-opacity="0.16"/>
    </filter>
  </defs>
  <rect width="100%" height="100%" rx="28" fill="#f4f7f4"/>
  <rect x="22" y="22" width="351" height="459" rx="22" fill="#ffffff" stroke="#d9e2dd" filter="url(#shadow)"/>
  <rect x="38" y="30" width="319" height="319" rx="18" fill="#ffffff" stroke="#cfe2d9"/>
  <rect x="82" y="74" width="7" height="7" rx="1.15" fill="#0f443a"/><rect x="89" y="74" width="7" height="7" rx="1.15" fill="#0f443a"/><rect x="96" y="74" width="7" height="7" rx="1.15" fill="#0f443a"/><rect x="103" y="74" width="7" height="7" rx="1.15" fill="#0f443a"/><rect x="110" y="74" width="7" height="7" rx="1.15" fill="#0f443a"/><rect x="117" y="74" width="7" height="7" rx="1.15" fill="#0f443a"/><rect x="124" y="74" width="7" height="7" rx="1.15" fill="#0f443a"/><rect x="138" y="74" width="7" height="7" rx="1.15" fill="#0f443a"/><rect x="145" y="74" width="7" height="7" rx="1.15" fill="#0f443a"/><rect x="173" y="74" width="7" height="7" rx="1.15" fill="#0f443a"/><rect x="180" y="74" width="7" height="7" rx="1.15" fill="#0f443a"/><rect x="194" y="74" width="7" height="7" rx="1.15" fill="#0f443a"/><rect x="208" y="74" width="7" height="7" rx="1.15" fill="#0f443a"/><rect x="236" y="74" width="7" height="7" rx="1.15" fill="#0f443a"/><rect x="243" y="74" width="7" height="7" rx="1.15" fill="#0f443a"/><rect x="250" y="74" width="7" height="7" rx="1.15" fill="#0f443a"/><rect x="264" y="74" width="7" height="7" rx="1.15" fill="#0f443a"/><rect x="271" y="74" width="7" height="7" rx="1.15" fill="#0f443a"/><rect x="278" y="74" width="7" height="7" rx="1.15" fill="#0f443a"/><rect x="285" y="74" width="7" height="7" rx="1.15" fill="#0f443a"/><rect x="292" y="74" width="7" height="7" rx="1.15" fill="#0f443a"/><rect x="299" y="74" width="7" height="7" rx="1.15" fill="#0f443a"/><rect x="306" y="74" width="7" height="7" rx="1.15" fill="#0f443a"/><rect x="82" y="81" width="7" height="7" rx="1.15" fill="#0f443a"/><rect x="124" y="81" width="7" height="7" rx="1.15" fill="#0f443a"/><rect x="152" y="81" width="7" height="7" rx="1.15" fill="#0f443a"/><rect x="201" y="81" width="7" height="7" rx="1.15" fill="#0f443a"/><rect x="208" y="81" width="7" height="7" rx="1.15" fill="#0f443a"/><rect x="215" y="81" width="7" height="7" rx="1.15" fill="#0f443a"/><rect x="229" y="81" width="7" height="7" rx="1.15" fill="#0f443a"/><rect x="236" y="81" width="7" height="7" rx="1.15" fill="#0f443a"/><rect x="243" y="81" width="7" height="7" rx="1.15" fill="#0f443a"/><rect x="264" y="81" width="7" height="7" rx="1.15" fill="#0f443a"/><rect x="306" y="81" width="7" height="7" rx="1.15" fill="#0f443a"/><rect x="82" y="88" width="7" height="7" rx="1.15" fill="#0f443a"/><rect x="96" y="88" width="7" height="7" rx="1.15" fill="#0f443a"/><rect x="103" y="88" width="7" height="7" rx="1.15" fill="#0f443a"/><rect x="110" y="88" width="7" height="7" rx="1.15" fill="#0f443a"/><rect x="124" y="88" width="7" height="7" rx="1.15" fill="#0f443a"/><rect x="152" y="88" width="7" height="7" rx="1.15" fill="#0f443a"/><rect x="180" y="88" width="7" height="7" rx="1.15" fill="#0f443a"/><rect x="208" y="88" width="7" height="7" rx="1.15" fill="#0f443a"/><rect x="222" y="88" width="7" height="7" rx="1.15" fill="#0f443a"/><rect x="236" y="88" width="7" height="7" rx="1.15" fill="#0f443a"/><rect x="243" y="88" width="7" height="7" rx="1.15" fill="#0f443a"/><rect x="250" y="88" width="7" height="7" rx="1.15" fill="#0f443a"/><rect x="264" y="88" width="7" height="7" rx="1.15" fill="#0f443a"/><rect x="278" y="88" width="7" height="7" rx="1.15" fill="#0f443a"/><rect x="285" y="88" width="7" height="7" rx="1.15" fill="#0f443a"/><rect x="292" y="88" width="7" height="7" rx="1.15" fill="#0f443a"/><rect x="306" y="88" width="7" height="7" rx="1.15" fill="#0f443a"/><rect x="82" y="95" width="7" height="7" rx="1.15" fill="#0f443a"/><rect x="96" y="95" width="7" height="7" rx="1.15" fill="#0f443a"/><rect x="103" y="95" width="7" height="7" rx="1.15" fill="#0f443a"/><rect x="110" y="95" width="7" height="7" rx="1.15" fill="#0f443a"/><rect x="124" y="95" width="7" height="7" rx="1.15" fill="#0f443a"/><rect x="138" y="95" width="7" height="7" rx="1.15" fill="#0f443a"/><rect x="145" y="95" width="7" height="7" rx="1.15" fill="#0f443a"/><rect x="152" y="95" width="7" height="7" rx="1.15" fill="#0f443a"/><rect x="159" y="95" width="7" height="7" rx="1.15" fill="#0f443a"/><rect x="166" y="95" width="7" height="7" rx="1.15" fill="#0f443a"/><rect x="201" y="95" width="7" height="7" rx="1.15" fill="#0f443a"/><rect x="208" y="95" width="7" height="7" rx="1.15" fill="#0f443a"/><rect x="215" y="95" width="7" height="7" rx="1.15" fill="#0f443a"/><rect x="236" y="95" width="7" height="7" rx="1.15" fill="#0f443a"/><rect x="264" y="95" width="7" height="7" rx="1.15" fill="#0f443a"/><rect x="278" y="95" width="7" height="7" rx="1.15" fill="#0f443a"/><rect x="285" y="95" width="7" height="7" rx="1.15" fill="#0f443a"/><rect x="292" y="95" width="7" height="7" rx="1.15" fill="#0f443a"/><rect x="306" y="95" width="7" height="7" rx="1.15" fill="#0f443a"/><rect x="82" y="102" width="7" height="7" rx="1.15" fill="#0f443a"/><rect x="96" y="102" width="7" height="7" rx="1.15" fill="#0f443a"/><rect x="103" y="102" width="7" height="7" rx="1.15" fill="#0f443a"/><rect x="110" y="102" width="7" height="7" rx="1.15" fill="#0f443a"/><rect x="124" y="102" width="7" height="7" rx="1.15" fill="#0f443a"/><rect x="145" y="102" width="7" height="7" rx="1.15" fill="#0f443a"/><rect x="173" y="102" width="7" height="7" rx="1.15" fill="#0f443a"/><rect x="187" y="102" width="7" height="7" rx="1.15" fill="#0f443a"/><rect x="194" y="102" width="7" height="7" rx="1.15" fill="#0f443a"/><rect x="201" y="102" width="7" height="7" rx="1.15" fill="#0f443a"/><rect x="208" y="102" width="7" height="7" rx="1.15" fill="#0f443a"/><rect x="215" y="102" width="7" height="7" rx="1.15" fill="#0f443a"/><rect x="236" y="102" width="7" height="7" rx="1.15" fill="#0f443a"/><rect x="264" y="102" width="7" height="7" rx="1.15" fill="#0f443a"/><rect x="278" y="102" width="7" height="7" rx="1.15" fill="#0f443a"/><rect x="285" y="102" width="7" height="7" rx="1.15" fill="#0f443a"/><rect x="292" y="102" width="7" height="7" rx="1.15" fill="#0f443a"/><rect x="306" y="102" width="7" height="7" rx="1.15" fill="#0f443a"/><rect x="82" y="109" width="7" height="7" rx="1.15" fill="#0f443a"/><rect x="124" y="109" width="7" height="7" rx="1.15" fill="#0f443a"/><rect x="173" y="109" width="7" height="7" rx="1.15" fill="#0f443a"/><rect x="180" y="109" width="7" height="7" rx="1.15" fill="#0f443a"/><rect x="194" y="109" width="7" height="7" rx="1.15" fill="#0f443a"/><rect x="201" y="109" width="7" height="7" rx="1.15" fill="#0f443a"/><rect x="222" y="109" width="7" height="7" rx="1.15" fill="#0f443a"/><rect x="229" y="109" width="7" height="7" rx="1.15" fill="#0f443a"/><rect x="236" y="109" width="7" height="7" rx="1.15" fill="#0f443a"/><rect x="264" y="109" width="7" height="7" rx="1.15" fill="#0f443a"/><rect x="306" y="109" width="7" height="7" rx="1.15" fill="#0f443a"/><rect x="82" y="116" width="7" height="7" rx="1.15" fill="#0f443a"/><rect x="89" y="116" width="7" height="7" rx="1.15" fill="#0f443a"/><rect x="96" y="116" width="7" height="7" rx="1.15" fill="#0f443a"/><rect x="103" y="116" width="7" height="7" rx="1.15" fill="#0f443a"/><rect x="110" y="116" width="7" height="7" rx="1.15" fill="#0f443a"/><rect x="117" y="116" width="7" height="7" rx="1.15" fill="#0f443a"/><rect x="124" y="116" width="7" height="7" rx="1.15" fill="#0f443a"/><rect x="138" y="116" width="7" height="7" rx="1.15" fill="#0f443a"/><rect x="152" y="116" width="7" height="7" rx="1.15" fill="#0f443a"/><rect x="166" y="116" width="7" height="7" rx="1.15" fill="#0f443a"/><rect x="180" y="116" width="7" height="7" rx="1.15" fill="#0f443a"/><rect x="194" y="116" width="7" height="7" rx="1.15" fill="#0f443a"/><rect x="208" y="116" width="7" height="7" rx="1.15" fill="#0f443a"/><rect x="222" y="116" width="7" height="7" rx="1.15" fill="#0f443a"/><rect x="236" y="116" width="7" height="7" rx="1.15" fill="#0f443a"/><rect x="250" y="116" width="7" height="7" rx="1.15" fill="#0f443a"/><rect x="264" y="116" width="7" height="7" rx="1.15" fill="#0f443a"/><rect x="271" y="116" width="7" height="7" rx="1.15" fill="#0f443a"/><rect x="278" y="116" width="7" height="7" rx="1.15" fill="#0f443a"/><rect x="285" y="116" width="7" height="7" rx="1.15" fill="#0f443a"/><rect x="292" y="116" width="7" height="7" rx="1.15" fill="#0f443a"/><rect x="299" y="116" width="7" height="7" rx="1.15" fill="#0f443a"/><rect x="306" y="116" width="7" height="7" rx="1.15" fill="#0f443a"/><rect x="145" y="123" width="7" height="7" rx="1.15" fill="#0f443a"/><rect x="152" y="123" width="7" height="7" rx="1.15" fill="#0f443a"/><rect x="159" y="123" width="7" height="7" rx="1.15" fill="#0f443a"/><rect x="208" y="123" width="7" height="7" rx="1.15" fill="#0f443a"/><rect x="215" y="123" width="7" height="7" rx="1.15" fill="#0f443a"/><rect x="222" y="123" width="7" height="7" rx="1.15" fill="#0f443a"/><rect x="229" y="123" width="7" height="7" rx="1.15" fill="#0f443a"/><rect x="250" y="123" width="7" height="7" rx="1.15" fill="#0f443a"/><rect x="96" y="130" width="7" height="7" rx="1.15" fill="#0f443a"/><rect x="110" y="130" width="7" height="7" rx="1.15" fill="#0f443a"/><rect x="117" y="130" width="7" height="7" rx="1.15" fill="#0f443a"/><rect x="124" y="130" width="7" height="7" rx="1.15" fill="#0f443a"/><rect x="138" y="130" width="7" height="7" rx="1.15" fill="#0f443a"/><rect x="145" y="130" width="7" height="7" rx="1.15" fill="#0f443a"/><rect x="152" y="130" width="7" height="7" rx="1.15" fill="#0f443a"/><rect x="159" y="130" width="7" height="7" rx="1.15" fill="#0f443a"/><rect x="194" y="130" width="7" height="7" rx="1.15" fill="#0f443a"/><rect x="208" y="130" width="7" height="7" rx="1.15" fill="#0f443a"/><rect x="229" y="130" width="7" height="7" rx="1.15" fill="#0f443a"/><rect x="243" y="130" width="7" height="7" rx="1.15" fill="#0f443a"/><rect x="257" y="130" width="7" height="7" rx="1.15" fill="#0f443a"/><rect x="285" y="130" width="7" height="7" rx="1.15" fill="#0f443a"/><rect x="306" y="130" width="7" height="7" rx="1.15" fill="#0f443a"/><rect x="89" y="137" width="7" height="7" rx="1.15" fill="#0f443a"/><rect x="110" y="137" width="7" height="7" rx="1.15" fill="#0f443a"/><rect x="131" y="137" width="7" height="7" rx="1.15" fill="#0f443a"/><rect x="173" y="137" width="7" height="7" rx="1.15" fill="#0f443a"/><rect x="180" y="137" width="7" height="7" rx="1.15" fill="#0f443a"/><rect x="208" y="137" width="7" height="7" rx="1.15" fill="#0f443a"/><rect x="215" y="137" width="7" height="7" rx="1.15" fill="#0f443a"/><rect x="229" y="137" width="7" height="7" rx="1.15" fill="#0f443a"/><rect x="250" y="137" width="7" height="7" rx="1.15" fill="#0f443a"/><rect x="264" y="137" width="7" height="7" rx="1.15" fill="#0f443a"/><rect x="285" y="137" width="7" height="7" rx="1.15" fill="#0f443a"/><rect x="292" y="137" width="7" height="7" rx="1.15" fill="#0f443a"/><rect x="299" y="137" width="7" height="7" rx="1.15" fill="#0f443a"/><rect x="306" y="137" width="7" height="7" rx="1.15" fill="#0f443a"/><rect x="82" y="144" width="7" height="7" rx="1.15" fill="#0f443a"/><rect x="103" y="144" width="7" height="7" rx="1.15" fill="#0f443a"/><rect x="117" y="144" width="7" height="7" rx="1.15" fill="#0f443a"/><rect x="124" y="144" width="7" height="7" rx="1.15" fill="#0f443a"/><rect x="138" y="144" width="7" height="7" rx="1.15" fill="#0f443a"/><rect x="152" y="144" width="7" height="7" rx="1.15" fill="#0f443a"/><rect x="166" y="144" width="7" height="7" rx="1.15" fill="#0f443a"/><rect x="187" y="144" width="7" height="7" rx="1.15" fill="#0f443a"/><rect x="208" y="144" width="7" height="7" rx="1.15" fill="#0f443a"/><rect x="215" y="144" width="7" height="7" rx="1.15" fill="#0f443a"/><rect x="236" y="144" width="7" height="7" rx="1.15" fill="#0f443a"/><rect x="257" y="144" width="7" height="7" rx="1.15" fill="#0f443a"/><rect x="278" y="144" width="7" height="7" rx="1.15" fill="#0f443a"/><rect x="285" y="144" width="7" height="7" rx="1.15" fill="#0f443a"/><rect x="292" y="144" width="7" height="7" rx="1.15" fill="#0f443a"/><rect x="299" y="144" width="7" height="7" rx="1.15" fill="#0f443a"/><rect x="306" y="144" width="7" height="7" rx="1.15" fill="#0f443a"/><rect x="89" y="151" width="7" height="7" rx="1.15" fill="#0f443a"/><rect x="96" y="151" width="7" height="7" rx="1.15" fill="#0f443a"/><rect x="110" y="151" width="7" height="7" rx="1.15" fill="#0f443a"/><rect x="138" y="151" width="7" height="7" rx="1.15" fill="#0f443a"/><rect x="145" y="151" width="7" height="7" rx="1.15" fill="#0f443a"/><rect x="152" y="151" width="7" height="7" rx="1.15" fill="#0f443a"/><rect x="166" y="151" width="7" height="7" rx="1.15" fill="#0f443a"/><rect x="180" y="151" width="7" height="7" rx="1.15" fill="#0f443a"/><rect x="201" y="151" width="7" height="7" rx="1.15" fill="#0f443a"/><rect x="215" y="151" width="7" height="7" rx="1.15" fill="#0f443a"/><rect x="222" y="151" width="7" height="7" rx="1.15" fill="#0f443a"/><rect x="229" y="151" width="7" height="7" rx="1.15" fill="#0f443a"/><rect x="236" y="151" width="7" height="7" rx="1.15" fill="#0f443a"/><rect x="243" y="151" width="7" height="7" rx="1.15" fill="#0f443a"/><rect x="299" y="151" width="7" height="7" rx="1.15" fill="#0f443a"/><rect x="96" y="158" width="7" height="7" rx="1.15" fill="#0f443a"/><rect x="103" y="158" width="7" height="7" rx="1.15" fill="#0f443a"/><rect x="110" y="158" width="7" height="7" rx="1.15" fill="#0f443a"/><rect x="124" y="158" width="7" height="7" rx="1.15" fill="#0f443a"/><rect x="138" y="158" width="7" height="7" rx="1.15" fill="#0f443a"/><rect x="152" y="158" width="7" height="7" rx="1.15" fill="#0f443a"/><rect x="159" y="158" width="7" height="7" rx="1.15" fill="#0f443a"/><rect x="166" y="158" width="7" height="7" rx="1.15" fill="#0f443a"/><rect x="187" y="158" width="7" height="7" rx="1.15" fill="#0f443a"/><rect x="194" y="158" width="7" height="7" rx="1.15" fill="#0f443a"/><rect x="215" y="158" width="7" height="7" rx="1.15" fill="#0f443a"/><rect x="236" y="158" width="7" height="7" rx="1.15" fill="#0f443a"/><rect x="243" y="158" width="7" height="7" rx="1.15" fill="#0f443a"/><rect x="257" y="158" width="7" height="7" rx="1.15" fill="#0f443a"/><rect x="264" y="158" width="7" height="7" rx="1.15" fill="#0f443a"/><rect x="299" y="158" width="7" height="7" rx="1.15" fill="#0f443a"/><rect x="306" y="158" width="7" height="7" rx="1.15" fill="#0f443a"/><rect x="82" y="165" width="7" height="7" rx="1.15" fill="#0f443a"/><rect x="103" y="165" width="7" height="7" rx="1.15" fill="#0f443a"/><rect x="110" y="165" width="7" height="7" rx="1.15" fill="#0f443a"/><rect x="117" y="165" width="7" height="7" rx="1.15" fill="#0f443a"/><rect x="138" y="165" width="7" height="7" rx="1.15" fill="#0f443a"/><rect x="145" y="165" width="7" height="7" rx="1.15" fill="#0f443a"/><rect x="152" y="165" width="7" height="7" rx="1.15" fill="#0f443a"/><rect x="159" y="165" width="7" height="7" rx="1.15" fill="#0f443a"/><rect x="201" y="165" width="7" height="7" rx="1.15" fill="#0f443a"/><rect x="208" y="165" width="7" height="7" rx="1.15" fill="#0f443a"/><rect x="236" y="165" width="7" height="7" rx="1.15" fill="#0f443a"/><rect x="250" y="165" width="7" height="7" rx="1.15" fill="#0f443a"/><rect x="257" y="165" width="7" height="7" rx="1.15" fill="#0f443a"/><rect x="264" y="165" width="7" height="7" rx="1.15" fill="#0f443a"/><rect x="285" y="165" width="7" height="7" rx="1.15" fill="#0f443a"/><rect x="299" y="165" width="7" height="7" rx="1.15" fill="#0f443a"/><rect x="306" y="165" width="7" height="7" rx="1.15" fill="#0f443a"/><rect x="82" y="172" width="7" height="7" rx="1.15" fill="#0f443a"/><rect x="103" y="172" width="7" height="7" rx="1.15" fill="#0f443a"/><rect x="117" y="172" width="7" height="7" rx="1.15" fill="#0f443a"/><rect x="124" y="172" width="7" height="7" rx="1.15" fill="#0f443a"/><rect x="145" y="172" width="7" height="7" rx="1.15" fill="#0f443a"/><rect x="152" y="172" width="7" height="7" rx="1.15" fill="#0f443a"/><rect x="166" y="172" width="7" height="7" rx="1.15" fill="#0f443a"/><rect x="173" y="172" width="7" height="7" rx="1.15" fill="#0f443a"/><rect x="208" y="172" width="7" height="7" rx="1.15" fill="#0f443a"/><rect x="215" y="172" width="7" height="7" rx="1.15" fill="#0f443a"/><rect x="222" y="172" width="7" height="7" rx="1.15" fill="#0f443a"/><rect x="229" y="172" width="7" height="7" rx="1.15" fill="#0f443a"/><rect x="250" y="172" width="7" height="7" rx="1.15" fill="#0f443a"/><rect x="257" y="172" width="7" height="7" rx="1.15" fill="#0f443a"/><rect x="271" y="172" width="7" height="7" rx="1.15" fill="#0f443a"/><rect x="278" y="172" width="7" height="7" rx="1.15" fill="#0f443a"/><rect x="299" y="172" width="7" height="7" rx="1.15" fill="#0f443a"/><rect x="306" y="172" width="7" height="7" rx="1.15" fill="#0f443a"/><rect x="96" y="179" width="7" height="7" rx="1.15" fill="#0f443a"/><rect x="110" y="179" width="7" height="7" rx="1.15" fill="#0f443a"/><rect x="145" y="179" width="7" height="7" rx="1.15" fill="#0f443a"/><rect x="152" y="179" width="7" height="7" rx="1.15" fill="#0f443a"/><rect x="180" y="179" width="7" height="7" rx="1.15" fill="#0f443a"/><rect x="187" y="179" width="7" height="7" rx="1.15" fill="#0f443a"/><rect x="194" y="179" width="7" height="7" rx="1.15" fill="#0f443a"/><rect x="208" y="179" width="7" height="7" rx="1.15" fill="#0f443a"/><rect x="215" y="179" width="7" height="7" rx="1.15" fill="#0f443a"/><rect x="222" y="179" width="7" height="7" rx="1.15" fill="#0f443a"/><rect x="229" y="179" width="7" height="7" rx="1.15" fill="#0f443a"/><rect x="236" y="179" width="7" height="7" rx="1.15" fill="#0f443a"/><rect x="243" y="179" width="7" height="7" rx="1.15" fill="#0f443a"/><rect x="257" y="179" width="7" height="7" rx="1.15" fill="#0f443a"/><rect x="264" y="179" width="7" height="7" rx="1.15" fill="#0f443a"/><rect x="271" y="179" width="7" height="7" rx="1.15" fill="#0f443a"/><rect x="278" y="179" width="7" height="7" rx="1.15" fill="#0f443a"/><rect x="285" y="179" width="7" height="7" rx="1.15" fill="#0f443a"/><rect x="306" y="179" width="7" height="7" rx="1.15" fill="#0f443a"/><rect x="89" y="186" width="7" height="7" rx="1.15" fill="#0f443a"/><rect x="103" y="186" width="7" height="7" rx="1.15" fill="#0f443a"/><rect x="110" y="186" width="7" height="7" rx="1.15" fill="#0f443a"/><rect x="124" y="186" width="7" height="7" rx="1.15" fill="#0f443a"/><rect x="131" y="186" width="7" height="7" rx="1.15" fill="#0f443a"/><rect x="145" y="186" width="7" height="7" rx="1.15" fill="#0f443a"/><rect x="152" y="186" width="7" height="7" rx="1.15" fill="#0f443a"/><rect x="166" y="186" width="7" height="7" rx="1.15" fill="#0f443a"/><rect x="180" y="186" width="7" height="7" rx="1.15" fill="#0f443a"/><rect x="194" y="186" width="7" height="7" rx="1.15" fill="#0f443a"/><rect x="215" y="186" width="7" height="7" rx="1.15" fill="#0f443a"/><rect x="222" y="186" width="7" height="7" rx="1.15" fill="#0f443a"/><rect x="229" y="186" width="7" height="7" rx="1.15" fill="#0f443a"/><rect x="236" y="186" width="7" height="7" rx="1.15" fill="#0f443a"/><rect x="243" y="186" width="7" height="7" rx="1.15" fill="#0f443a"/><rect x="257" y="186" width="7" height="7" rx="1.15" fill="#0f443a"/><rect x="264" y="186" width="7" height="7" rx="1.15" fill="#0f443a"/><rect x="299" y="186" width="7" height="7" rx="1.15" fill="#0f443a"/><rect x="89" y="193" width="7" height="7" rx="1.15" fill="#0f443a"/><rect x="103" y="193" width="7" height="7" rx="1.15" fill="#0f443a"/><rect x="110" y="193" width="7" height="7" rx="1.15" fill="#0f443a"/><rect x="138" y="193" width="7" height="7" rx="1.15" fill="#0f443a"/><rect x="159" y="193" width="7" height="7" rx="1.15" fill="#0f443a"/><rect x="173" y="193" width="7" height="7" rx="1.15" fill="#0f443a"/><rect x="180" y="193" width="7" height="7" rx="1.15" fill="#0f443a"/><rect x="194" y="193" width="7" height="7" rx="1.15" fill="#0f443a"/><rect x="201" y="193" width="7" height="7" rx="1.15" fill="#0f443a"/><rect x="208" y="193" width="7" height="7" rx="1.15" fill="#0f443a"/><rect x="222" y="193" width="7" height="7" rx="1.15" fill="#0f443a"/><rect x="257" y="193" width="7" height="7" rx="1.15" fill="#0f443a"/><rect x="264" y="193" width="7" height="7" rx="1.15" fill="#0f443a"/><rect x="271" y="193" width="7" height="7" rx="1.15" fill="#0f443a"/><rect x="285" y="193" width="7" height="7" rx="1.15" fill="#0f443a"/><rect x="292" y="193" width="7" height="7" rx="1.15" fill="#0f443a"/><rect x="299" y="193" width="7" height="7" rx="1.15" fill="#0f443a"/><rect x="306" y="193" width="7" height="7" rx="1.15" fill="#0f443a"/><rect x="82" y="200" width="7" height="7" rx="1.15" fill="#0f443a"/><rect x="89" y="200" width="7" height="7" rx="1.15" fill="#0f443a"/><rect x="110" y="200" width="7" height="7" rx="1.15" fill="#0f443a"/><rect x="117" y="200" width="7" height="7" rx="1.15" fill="#0f443a"/><rect x="124" y="200" width="7" height="7" rx="1.15" fill="#0f443a"/><rect x="131" y="200" width="7" height="7" rx="1.15" fill="#0f443a"/><rect x="138" y="200" width="7" height="7" rx="1.15" fill="#0f443a"/><rect x="145" y="200" width="7" height="7" rx="1.15" fill="#0f443a"/><rect x="159" y="200" width="7" height="7" rx="1.15" fill="#0f443a"/><rect x="166" y="200" width="7" height="7" rx="1.15" fill="#0f443a"/><rect x="173" y="200" width="7" height="7" rx="1.15" fill="#0f443a"/><rect x="180" y="200" width="7" height="7" rx="1.15" fill="#0f443a"/><rect x="201" y="200" width="7" height="7" rx="1.15" fill="#0f443a"/><rect x="208" y="200" width="7" height="7" rx="1.15" fill="#0f443a"/><rect x="229" y="200" width="7" height="7" rx="1.15" fill="#0f443a"/><rect x="257" y="200" width="7" height="7" rx="1.15" fill="#0f443a"/><rect x="271" y="200" width="7" height="7" rx="1.15" fill="#0f443a"/><rect x="278" y="200" width="7" height="7" rx="1.15" fill="#0f443a"/><rect x="292" y="200" width="7" height="7" rx="1.15" fill="#0f443a"/><rect x="299" y="200" width="7" height="7" rx="1.15" fill="#0f443a"/><rect x="306" y="200" width="7" height="7" rx="1.15" fill="#0f443a"/><rect x="82" y="207" width="7" height="7" rx="1.15" fill="#0f443a"/><rect x="89" y="207" width="7" height="7" rx="1.15" fill="#0f443a"/><rect x="110" y="207" width="7" height="7" rx="1.15" fill="#0f443a"/><rect x="152" y="207" width="7" height="7" rx="1.15" fill="#0f443a"/><rect x="180" y="207" width="7" height="7" rx="1.15" fill="#0f443a"/><rect x="187" y="207" width="7" height="7" rx="1.15" fill="#0f443a"/><rect x="201" y="207" width="7" height="7" rx="1.15" fill="#0f443a"/><rect x="222" y="207" width="7" height="7" rx="1.15" fill="#0f443a"/><rect x="229" y="207" width="7" height="7" rx="1.15" fill="#0f443a"/><rect x="236" y="207" width="7" height="7" rx="1.15" fill="#0f443a"/><rect x="264" y="207" width="7" height="7" rx="1.15" fill="#0f443a"/><rect x="271" y="207" width="7" height="7" rx="1.15" fill="#0f443a"/><rect x="278" y="207" width="7" height="7" rx="1.15" fill="#0f443a"/><rect x="82" y="214" width="7" height="7" rx="1.15" fill="#0f443a"/><rect x="96" y="214" width="7" height="7" rx="1.15" fill="#0f443a"/><rect x="117" y="214" width="7" height="7" rx="1.15" fill="#0f443a"/><rect x="124" y="214" width="7" height="7" rx="1.15" fill="#0f443a"/><rect x="138" y="214" width="7" height="7" rx="1.15" fill="#0f443a"/><rect x="145" y="214" width="7" height="7" rx="1.15" fill="#0f443a"/><rect x="152" y="214" width="7" height="7" rx="1.15" fill="#0f443a"/><rect x="166" y="214" width="7" height="7" rx="1.15" fill="#0f443a"/><rect x="180" y="214" width="7" height="7" rx="1.15" fill="#0f443a"/><rect x="215" y="214" width="7" height="7" rx="1.15" fill="#0f443a"/><rect x="222" y="214" width="7" height="7" rx="1.15" fill="#0f443a"/><rect x="229" y="214" width="7" height="7" rx="1.15" fill="#0f443a"/><rect x="250" y="214" width="7" height="7" rx="1.15" fill="#0f443a"/><rect x="264" y="214" width="7" height="7" rx="1.15" fill="#0f443a"/><rect x="285" y="214" width="7" height="7" rx="1.15" fill="#0f443a"/><rect x="299" y="214" width="7" height="7" rx="1.15" fill="#0f443a"/><rect x="306" y="214" width="7" height="7" rx="1.15" fill="#0f443a"/><rect x="89" y="221" width="7" height="7" rx="1.15" fill="#0f443a"/><rect x="103" y="221" width="7" height="7" rx="1.15" fill="#0f443a"/><rect x="117" y="221" width="7" height="7" rx="1.15" fill="#0f443a"/><rect x="131" y="221" width="7" height="7" rx="1.15" fill="#0f443a"/><rect x="138" y="221" width="7" height="7" rx="1.15" fill="#0f443a"/><rect x="159" y="221" width="7" height="7" rx="1.15" fill="#0f443a"/><rect x="187" y="221" width="7" height="7" rx="1.15" fill="#0f443a"/><rect x="201" y="221" width="7" height="7" rx="1.15" fill="#0f443a"/><rect x="215" y="221" width="7" height="7" rx="1.15" fill="#0f443a"/><rect x="222" y="221" width="7" height="7" rx="1.15" fill="#0f443a"/><rect x="243" y="221" width="7" height="7" rx="1.15" fill="#0f443a"/><rect x="257" y="221" width="7" height="7" rx="1.15" fill="#0f443a"/><rect x="264" y="221" width="7" height="7" rx="1.15" fill="#0f443a"/><rect x="299" y="221" width="7" height="7" rx="1.15" fill="#0f443a"/><rect x="306" y="221" width="7" height="7" rx="1.15" fill="#0f443a"/><rect x="82" y="228" width="7" height="7" rx="1.15" fill="#0f443a"/><rect x="103" y="228" width="7" height="7" rx="1.15" fill="#0f443a"/><rect x="110" y="228" width="7" height="7" rx="1.15" fill="#0f443a"/><rect x="117" y="228" width="7" height="7" rx="1.15" fill="#0f443a"/><rect x="124" y="228" width="7" height="7" rx="1.15" fill="#0f443a"/><rect x="131" y="228" width="7" height="7" rx="1.15" fill="#0f443a"/><rect x="138" y="228" width="7" height="7" rx="1.15" fill="#0f443a"/><rect x="152" y="228" width="7" height="7" rx="1.15" fill="#0f443a"/><rect x="159" y="228" width="7" height="7" rx="1.15" fill="#0f443a"/><rect x="173" y="228" width="7" height="7" rx="1.15" fill="#0f443a"/><rect x="180" y="228" width="7" height="7" rx="1.15" fill="#0f443a"/><rect x="187" y="228" width="7" height="7" rx="1.15" fill="#0f443a"/><rect x="194" y="228" width="7" height="7" rx="1.15" fill="#0f443a"/><rect x="201" y="228" width="7" height="7" rx="1.15" fill="#0f443a"/><rect x="236" y="228" width="7" height="7" rx="1.15" fill="#0f443a"/><rect x="264" y="228" width="7" height="7" rx="1.15" fill="#0f443a"/><rect x="285" y="228" width="7" height="7" rx="1.15" fill="#0f443a"/><rect x="292" y="228" width="7" height="7" rx="1.15" fill="#0f443a"/><rect x="299" y="228" width="7" height="7" rx="1.15" fill="#0f443a"/><rect x="306" y="228" width="7" height="7" rx="1.15" fill="#0f443a"/><rect x="89" y="235" width="7" height="7" rx="1.15" fill="#0f443a"/><rect x="110" y="235" width="7" height="7" rx="1.15" fill="#0f443a"/><rect x="131" y="235" width="7" height="7" rx="1.15" fill="#0f443a"/><rect x="138" y="235" width="7" height="7" rx="1.15" fill="#0f443a"/><rect x="145" y="235" width="7" height="7" rx="1.15" fill="#0f443a"/><rect x="166" y="235" width="7" height="7" rx="1.15" fill="#0f443a"/><rect x="180" y="235" width="7" height="7" rx="1.15" fill="#0f443a"/><rect x="201" y="235" width="7" height="7" rx="1.15" fill="#0f443a"/><rect x="208" y="235" width="7" height="7" rx="1.15" fill="#0f443a"/><rect x="215" y="235" width="7" height="7" rx="1.15" fill="#0f443a"/><rect x="229" y="235" width="7" height="7" rx="1.15" fill="#0f443a"/><rect x="250" y="235" width="7" height="7" rx="1.15" fill="#0f443a"/><rect x="257" y="235" width="7" height="7" rx="1.15" fill="#0f443a"/><rect x="271" y="235" width="7" height="7" rx="1.15" fill="#0f443a"/><rect x="299" y="235" width="7" height="7" rx="1.15" fill="#0f443a"/><rect x="82" y="242" width="7" height="7" rx="1.15" fill="#0f443a"/><rect x="96" y="242" width="7" height="7" rx="1.15" fill="#0f443a"/><rect x="103" y="242" width="7" height="7" rx="1.15" fill="#0f443a"/><rect x="110" y="242" width="7" height="7" rx="1.15" fill="#0f443a"/><rect x="124" y="242" width="7" height="7" rx="1.15" fill="#0f443a"/><rect x="131" y="242" width="7" height="7" rx="1.15" fill="#0f443a"/><rect x="138" y="242" width="7" height="7" rx="1.15" fill="#0f443a"/><rect x="166" y="242" width="7" height="7" rx="1.15" fill="#0f443a"/><rect x="173" y="242" width="7" height="7" rx="1.15" fill="#0f443a"/><rect x="180" y="242" width="7" height="7" rx="1.15" fill="#0f443a"/><rect x="208" y="242" width="7" height="7" rx="1.15" fill="#0f443a"/><rect x="229" y="242" width="7" height="7" rx="1.15" fill="#0f443a"/><rect x="243" y="242" width="7" height="7" rx="1.15" fill="#0f443a"/><rect x="250" y="242" width="7" height="7" rx="1.15" fill="#0f443a"/><rect x="257" y="242" width="7" height="7" rx="1.15" fill="#0f443a"/><rect x="264" y="242" width="7" height="7" rx="1.15" fill="#0f443a"/><rect x="271" y="242" width="7" height="7" rx="1.15" fill="#0f443a"/><rect x="278" y="242" width="7" height="7" rx="1.15" fill="#0f443a"/><rect x="285" y="242" width="7" height="7" rx="1.15" fill="#0f443a"/><rect x="138" y="249" width="7" height="7" rx="1.15" fill="#0f443a"/><rect x="159" y="249" width="7" height="7" rx="1.15" fill="#0f443a"/><rect x="173" y="249" width="7" height="7" rx="1.15" fill="#0f443a"/><rect x="187" y="249" width="7" height="7" rx="1.15" fill="#0f443a"/><rect x="208" y="249" width="7" height="7" rx="1.15" fill="#0f443a"/><rect x="236" y="249" width="7" height="7" rx="1.15" fill="#0f443a"/><rect x="243" y="249" width="7" height="7" rx="1.15" fill="#0f443a"/><rect x="250" y="249" width="7" height="7" rx="1.15" fill="#0f443a"/><rect x="278" y="249" width="7" height="7" rx="1.15" fill="#0f443a"/><rect x="306" y="249" width="7" height="7" rx="1.15" fill="#0f443a"/><rect x="82" y="256" width="7" height="7" rx="1.15" fill="#0f443a"/><rect x="89" y="256" width="7" height="7" rx="1.15" fill="#0f443a"/><rect x="96" y="256" width="7" height="7" rx="1.15" fill="#0f443a"/><rect x="103" y="256" width="7" height="7" rx="1.15" fill="#0f443a"/><rect x="110" y="256" width="7" height="7" rx="1.15" fill="#0f443a"/><rect x="117" y="256" width="7" height="7" rx="1.15" fill="#0f443a"/><rect x="124" y="256" width="7" height="7" rx="1.15" fill="#0f443a"/><rect x="152" y="256" width="7" height="7" rx="1.15" fill="#0f443a"/><rect x="187" y="256" width="7" height="7" rx="1.15" fill="#0f443a"/><rect x="201" y="256" width="7" height="7" rx="1.15" fill="#0f443a"/><rect x="215" y="256" width="7" height="7" rx="1.15" fill="#0f443a"/><rect x="222" y="256" width="7" height="7" rx="1.15" fill="#0f443a"/><rect x="229" y="256" width="7" height="7" rx="1.15" fill="#0f443a"/><rect x="243" y="256" width="7" height="7" rx="1.15" fill="#0f443a"/><rect x="250" y="256" width="7" height="7" rx="1.15" fill="#0f443a"/><rect x="264" y="256" width="7" height="7" rx="1.15" fill="#0f443a"/><rect x="278" y="256" width="7" height="7" rx="1.15" fill="#0f443a"/><rect x="292" y="256" width="7" height="7" rx="1.15" fill="#0f443a"/><rect x="299" y="256" width="7" height="7" rx="1.15" fill="#0f443a"/><rect x="306" y="256" width="7" height="7" rx="1.15" fill="#0f443a"/><rect x="82" y="263" width="7" height="7" rx="1.15" fill="#0f443a"/><rect x="124" y="263" width="7" height="7" rx="1.15" fill="#0f443a"/><rect x="138" y="263" width="7" height="7" rx="1.15" fill="#0f443a"/><rect x="152" y="263" width="7" height="7" rx="1.15" fill="#0f443a"/><rect x="159" y="263" width="7" height="7" rx="1.15" fill="#0f443a"/><rect x="173" y="263" width="7" height="7" rx="1.15" fill="#0f443a"/><rect x="180" y="263" width="7" height="7" rx="1.15" fill="#0f443a"/><rect x="194" y="263" width="7" height="7" rx="1.15" fill="#0f443a"/><rect x="201" y="263" width="7" height="7" rx="1.15" fill="#0f443a"/><rect x="215" y="263" width="7" height="7" rx="1.15" fill="#0f443a"/><rect x="222" y="263" width="7" height="7" rx="1.15" fill="#0f443a"/><rect x="250" y="263" width="7" height="7" rx="1.15" fill="#0f443a"/><rect x="278" y="263" width="7" height="7" rx="1.15" fill="#0f443a"/><rect x="306" y="263" width="7" height="7" rx="1.15" fill="#0f443a"/><rect x="82" y="270" width="7" height="7" rx="1.15" fill="#0f443a"/><rect x="96" y="270" width="7" height="7" rx="1.15" fill="#0f443a"/><rect x="103" y="270" width="7" height="7" rx="1.15" fill="#0f443a"/><rect x="110" y="270" width="7" height="7" rx="1.15" fill="#0f443a"/><rect x="124" y="270" width="7" height="7" rx="1.15" fill="#0f443a"/><rect x="138" y="270" width="7" height="7" rx="1.15" fill="#0f443a"/><rect x="145" y="270" width="7" height="7" rx="1.15" fill="#0f443a"/><rect x="159" y="270" width="7" height="7" rx="1.15" fill="#0f443a"/><rect x="194" y="270" width="7" height="7" rx="1.15" fill="#0f443a"/><rect x="208" y="270" width="7" height="7" rx="1.15" fill="#0f443a"/><rect x="215" y="270" width="7" height="7" rx="1.15" fill="#0f443a"/><rect x="222" y="270" width="7" height="7" rx="1.15" fill="#0f443a"/><rect x="250" y="270" width="7" height="7" rx="1.15" fill="#0f443a"/><rect x="257" y="270" width="7" height="7" rx="1.15" fill="#0f443a"/><rect x="264" y="270" width="7" height="7" rx="1.15" fill="#0f443a"/><rect x="271" y="270" width="7" height="7" rx="1.15" fill="#0f443a"/><rect x="278" y="270" width="7" height="7" rx="1.15" fill="#0f443a"/><rect x="299" y="270" width="7" height="7" rx="1.15" fill="#0f443a"/><rect x="82" y="277" width="7" height="7" rx="1.15" fill="#0f443a"/><rect x="96" y="277" width="7" height="7" rx="1.15" fill="#0f443a"/><rect x="103" y="277" width="7" height="7" rx="1.15" fill="#0f443a"/><rect x="110" y="277" width="7" height="7" rx="1.15" fill="#0f443a"/><rect x="124" y="277" width="7" height="7" rx="1.15" fill="#0f443a"/><rect x="152" y="277" width="7" height="7" rx="1.15" fill="#0f443a"/><rect x="166" y="277" width="7" height="7" rx="1.15" fill="#0f443a"/><rect x="180" y="277" width="7" height="7" rx="1.15" fill="#0f443a"/><rect x="187" y="277" width="7" height="7" rx="1.15" fill="#0f443a"/><rect x="201" y="277" width="7" height="7" rx="1.15" fill="#0f443a"/><rect x="250" y="277" width="7" height="7" rx="1.15" fill="#0f443a"/><rect x="278" y="277" width="7" height="7" rx="1.15" fill="#0f443a"/><rect x="292" y="277" width="7" height="7" rx="1.15" fill="#0f443a"/><rect x="82" y="284" width="7" height="7" rx="1.15" fill="#0f443a"/><rect x="96" y="284" width="7" height="7" rx="1.15" fill="#0f443a"/><rect x="103" y="284" width="7" height="7" rx="1.15" fill="#0f443a"/><rect x="110" y="284" width="7" height="7" rx="1.15" fill="#0f443a"/><rect x="124" y="284" width="7" height="7" rx="1.15" fill="#0f443a"/><rect x="138" y="284" width="7" height="7" rx="1.15" fill="#0f443a"/><rect x="145" y="284" width="7" height="7" rx="1.15" fill="#0f443a"/><rect x="166" y="284" width="7" height="7" rx="1.15" fill="#0f443a"/><rect x="187" y="284" width="7" height="7" rx="1.15" fill="#0f443a"/><rect x="201" y="284" width="7" height="7" rx="1.15" fill="#0f443a"/><rect x="208" y="284" width="7" height="7" rx="1.15" fill="#0f443a"/><rect x="215" y="284" width="7" height="7" rx="1.15" fill="#0f443a"/><rect x="236" y="284" width="7" height="7" rx="1.15" fill="#0f443a"/><rect x="243" y="284" width="7" height="7" rx="1.15" fill="#0f443a"/><rect x="250" y="284" width="7" height="7" rx="1.15" fill="#0f443a"/><rect x="257" y="284" width="7" height="7" rx="1.15" fill="#0f443a"/><rect x="271" y="284" width="7" height="7" rx="1.15" fill="#0f443a"/><rect x="278" y="284" width="7" height="7" rx="1.15" fill="#0f443a"/><rect x="306" y="284" width="7" height="7" rx="1.15" fill="#0f443a"/><rect x="82" y="291" width="7" height="7" rx="1.15" fill="#0f443a"/><rect x="124" y="291" width="7" height="7" rx="1.15" fill="#0f443a"/><rect x="145" y="291" width="7" height="7" rx="1.15" fill="#0f443a"/><rect x="159" y="291" width="7" height="7" rx="1.15" fill="#0f443a"/><rect x="166" y="291" width="7" height="7" rx="1.15" fill="#0f443a"/><rect x="180" y="291" width="7" height="7" rx="1.15" fill="#0f443a"/><rect x="236" y="291" width="7" height="7" rx="1.15" fill="#0f443a"/><rect x="243" y="291" width="7" height="7" rx="1.15" fill="#0f443a"/><rect x="250" y="291" width="7" height="7" rx="1.15" fill="#0f443a"/><rect x="271" y="291" width="7" height="7" rx="1.15" fill="#0f443a"/><rect x="299" y="291" width="7" height="7" rx="1.15" fill="#0f443a"/><rect x="82" y="298" width="7" height="7" rx="1.15" fill="#0f443a"/><rect x="89" y="298" width="7" height="7" rx="1.15" fill="#0f443a"/><rect x="96" y="298" width="7" height="7" rx="1.15" fill="#0f443a"/><rect x="103" y="298" width="7" height="7" rx="1.15" fill="#0f443a"/><rect x="110" y="298" width="7" height="7" rx="1.15" fill="#0f443a"/><rect x="117" y="298" width="7" height="7" rx="1.15" fill="#0f443a"/><rect x="124" y="298" width="7" height="7" rx="1.15" fill="#0f443a"/><rect x="145" y="298" width="7" height="7" rx="1.15" fill="#0f443a"/><rect x="166" y="298" width="7" height="7" rx="1.15" fill="#0f443a"/><rect x="194" y="298" width="7" height="7" rx="1.15" fill="#0f443a"/><rect x="201" y="298" width="7" height="7" rx="1.15" fill="#0f443a"/><rect x="229" y="298" width="7" height="7" rx="1.15" fill="#0f443a"/><rect x="236" y="298" width="7" height="7" rx="1.15" fill="#0f443a"/><rect x="243" y="298" width="7" height="7" rx="1.15" fill="#0f443a"/><rect x="250" y="298" width="7" height="7" rx="1.15" fill="#0f443a"/><rect x="257" y="298" width="7" height="7" rx="1.15" fill="#0f443a"/><rect x="264" y="298" width="7" height="7" rx="1.15" fill="#0f443a"/><rect x="271" y="298" width="7" height="7" rx="1.15" fill="#0f443a"/><rect x="278" y="298" width="7" height="7" rx="1.15" fill="#0f443a"/><rect x="299" y="298" width="7" height="7" rx="1.15" fill="#0f443a"/><rect x="306" y="298" width="7" height="7" rx="1.15" fill="#0f443a"/>
  <text x="197.5" y="391" text-anchor="middle" fill="#0f443a" font-family="Inter, Arial, sans-serif" font-size="24" font-weight="800">Termeh Tohidi</text>
  <text x="197.5" y="421" text-anchor="middle" fill="#52615c" font-family="Inter, Arial, sans-serif" font-size="14" font-weight="700">M.Sc. Biological Sciences</text>
  <text x="197.5" y="451" text-anchor="middle" fill="#b7833a" font-family="Inter, Arial, sans-serif" font-size="13" font-weight="800" letter-spacing="1.6">SCAN FOR PORTFOLIO</text>
  <text x="197.5" y="479" text-anchor="middle" fill="#52615c" font-family="Inter, Arial, sans-serif" font-size="13">https://termehtohidi.github.io/</text>
</svg>
